HIERARCHY
ROOT Hips
{
	OFFSET 0.000000 0.000000 0.000000
	CHANNELS 6 Xposition Yposition Zposition Xrotation Yrotation Zrotation
	JOINT Chest
	{
		OFFSET 0.000000 0.009282 11.569106
		CHANNELS 6 Xposition Yposition Zposition Xrotation Yrotation Zrotation
		JOINT Chest2
		{
			OFFSET 0.000000 -0.016863 9.269641
			CHANNELS 6 Xposition Yposition Zposition Xrotation Yrotation Zrotation
			JOINT Chest3
			{
				OFFSET 0.000000 0.000000 8.374491
				CHANNELS 6 Xposition Yposition Zposition Xrotation Yrotation Zrotation
				JOINT Chest4
				{
					OFFSET 0.000000 0.000000 8.374493
					CHANNELS 6 Xposition Yposition Zposition Xrotation Yrotation Zrotation
					JOINT Neck
					{
						OFFSET 0.000000 -0.000001 12.152554
						CHANNELS 6 Xposition Yposition Zposition Xrotation Yrotation Zrotation
						JOINT Head
						{
							OFFSET 0.000000 -0.040100 7.802319
							CHANNELS 6 Xposition Yposition Zposition Xrotation Yrotation Zrotation
							End Site
							{
								OFFSET 0.000000 -0.020946 14.853096
							}
						}
					}
					JOINT RightCollar
					{
						OFFSET -2.894404 0.000000 6.791374
						CHANNELS 6 Xposition Yposition Zposition Xrotation Yrotation Zrotation
						JOINT RightShoulder
						{
							OFFSET -13.574684 0.000000 0.000000
							CHANNELS 6 Xposition Yposition Zposition Xrotation Yrotation Zrotation
							JOINT RightElbow
							{
								OFFSET -23.923903 0.000000 0.000000
								CHANNELS 6 Xposition Yposition Zposition Xrotation Yrotation Zrotation
								JOINT RightWrist
								{
									OFFSET -19.846718 -0.012765 0.000000
									CHANNELS 6 Xposition Yposition Zposition Xrotation Yrotation Zrotation
									End Site
									{
										OFFSET -14.973145 0.000000 0.000000
									}
								}
							}
						}
					}
					JOINT LeftCollar
					{
						OFFSET 2.894404 0.000000 6.791374
						CHANNELS 6 Xposition Yposition Zposition Xrotation Yrotation Zrotation
						JOINT LeftShoulder
						{
							OFFSET 13.574684 0.000000 0.000000
							CHANNELS 6 Xposition Yposition Zposition Xrotation Yrotation Zrotation
							JOINT LeftElbow
							{
								OFFSET 23.923903 0.000000 0.000000
								CHANNELS 6 Xposition Yposition Zposition Xrotation Yrotation Zrotation
								JOINT LeftWrist
								{
									OFFSET 19.846718 -0.012765 0.000000
									CHANNELS 6 Xposition Yposition Zposition Xrotation Yrotation Zrotation
									End Site
									{
										OFFSET 14.973145 0.000000 0.000000
									}
								}
							}
						}
					}
				}
			}
		}
	}
	JOINT RightHip
	{
		OFFSET -9.469263 -0.004642 0.045487
		CHANNELS 6 Xposition Yposition Zposition Xrotation Yrotation Zrotation
		JOINT RightKnee
		{
			OFFSET 0.000000 -0.002666 -40.478676
			CHANNELS 6 Xposition Yposition Zposition Xrotation Yrotation Zrotation
			JOINT RightAnkle
			{
				OFFSET 0.000000 -0.049110 -35.224068
				CHANNELS 6 Xposition Yposition Zposition Xrotation Yrotation Zrotation
				JOINT RightToe
				{
					OFFSET 0.000000 -12.539530 -6.151390
					CHANNELS 6 Xposition Yposition Zposition Xrotation Yrotation Zrotation
					End Site
					{
						OFFSET 0.000000 -5.044995 -1.291870
					}
				}
			}
		}
	}
	JOINT LeftHip
	{
		OFFSET 9.469263 -0.004642 0.045487
		CHANNELS 6 Xposition Yposition Zposition Xrotation Yrotation Zrotation
		JOINT LeftKnee
		{
			OFFSET 0.000000 -0.002666 -40.478676
			CHANNELS 6 Xposition Yposition Zposition Xrotation Yrotation Zrotation
			JOINT LeftAnkle
			{
				OFFSET 0.000000 -0.049110 -35.224068
				CHANNELS 6 Xposition Yposition Zposition Xrotation Yrotation Zrotation
				JOINT LeftToe
				{
					OFFSET 0.000000 -12.539530 -6.151390
					CHANNELS 6 Xposition Yposition Zposition Xrotation Yrotation Zrotation
					End Site
					{
						OFFSET 0.000000 -5.044995 -1.291870
					}
				}
			}
		}
	}
}
MOTION
Frames: 5
Frame Time: 0.016667
3.146806 -16.940533 83.824623 1.879210 2.528163 -112.614991 -0.000001 0.009283 11.569110 6.350217 1.364111 -0.562778 -0.000001 -0.016862 9.269653 2.542326 0.529741 0.190543 0.000000 -0.000000 8.374484 2.542326 0.529741 0.190534 0.000001 -0.000003 8.374473 1.906899 0.396522 0.145114 0.000000 -0.000002 12.152557 14.347120 -1.241157 -0.732598 0.000001 -0.040095 7.802318 -9.557260 -1.973245 -1.808351 -2.894404 0.000001 6.791377 -7.775825 -9.608755 -0.359947 -13.574684 0.000001 -0.000012 18.062978 -40.428402 -6.298400 -23.923895 0.000001 -0.000010 70.221202 21.980116 67.818471 -19.846720 -0.012769 0.000003 -59.557481 45.452966 84.709652 2.894405 0.000000 6.791387 -4.390583 8.530425 -5.149194 13.574686 0.000001 0.000004 17.819629 39.648039 10.455785 23.923889 -0.000004 0.000004 63.010831 -10.006468 -63.100648 19.846735 -0.012771 0.000007 -31.559750 -32.842097 -85.724502 -9.469263 -0.004641 0.045488 1.257918 -2.665872 -8.961164 0.000087 -0.002668 -40.478653 0.800218 -3.241825 -1.808983 -0.000127 -0.049115 -35.224125 -1.066193 0.633539 2.710602 0.000029 -12.539533 -6.151343 0.902185 0.842486 -0.608027 9.469264 -0.004640 0.045495 1.821718 1.398487 9.140268 -0.000289 -0.002709 -40.478291 8.084142 0.193854 6.189022 -0.000183 -0.049125 -35.224236 -3.805944 2.489401 3.936813 0.000002 -12.539531 -6.151385 -0.057474 2.030750 -0.051831 
3.492560 -16.797192 83.774200 1.945763 2.693368 -112.210193 -0.000001 0.009282 11.569110 6.606526 1.381121 -0.872109 0.000000 -0.016864 9.269638 2.544878 0.504083 0.177367 -0.000000 -0.000002 8.374494 2.544880 0.504083 0.177362 -0.000000 -0.000004 8.374480 1.908792 0.377332 0.135125 0.000001 -0.000001 12.152556 14.325478 -1.173442 -0.742958 -0.000004 -0.040100 7.802315 -9.595968 -1.845964 -1.801399 -2.894403 0.000002 6.791381 -7.838179 -9.636148 -0.306146 -13.574684 -0.000001 0.000007 18.180850 -40.435908 -6.254805 -23.923897 -0.000004 0.000005 70.205465 21.810066 67.861522 -19.846718 -0.012770 0.000003 -59.575820 45.486608 84.756261 2.894407 0.000001 6.791376 -4.365695 8.467864 -5.144715 13.574685 -0.000003 0.000001 18.253952 39.449554 9.855728 23.923904 0.000001 0.000010 63.072070 -9.891891 -63.069373 19.846712 -0.012770 0.000004 -31.763323 -32.911779 -85.874370 -9.469263 -0.004642 0.045490 1.232080 -2.752964 -9.703018 0.000085 -0.002669 -40.478622 0.992699 -3.363873 -1.780940 -0.000138 -0.049120 -35.224125 -1.222850 0.617876 2.946154 0.000033 -12.539533 -6.151339 0.927958 0.934045 -0.724120 9.469263 -0.004642 0.045492 0.863466 1.259023 7.986935 -0.000314 -0.002724 -40.478207 9.842643 0.100893 6.676815 -0.000193 -0.049127 -35.224255 -4.041861 1.724917 4.225839 0.000004 -12.539532 -6.151409 -0.337120 2.424363 -0.065382 
3.776821 -16.665579 83.740486 2.026288 2.938301 -111.873868 0.000000 0.009282 11.569108 6.932173 1.414737 -1.124665 0.000001 -0.016864 9.269633 2.565408 0.467630 0.181269 -0.000002 0.000001 8.374493 2.565408 0.467630 0.181268 -0.000001 -0.000001 8.374486 1.924184 0.349969 0.137912 -0.000001 -0.000002 12.152551 14.284054 -1.116152 -0.762324 0.000002 -0.040106 7.802296 -9.671723 -1.733893 -1.815051 -2.894405 0.000002 6.791379 -7.875182 -9.684735 -0.202356 -13.574684 -0.000001 -0.000001 18.187517 -40.413471 -6.378956 -23.923904 0.000002 -0.000007 70.163815 21.744365 67.933785 -19.846722 -0.012769 0.000001 -59.746233 45.478480 84.930247 2.894402 -0.000000 6.791380 -4.350959 8.451585 -5.143381 13.574683 0.000002 0.000003 18.744389 39.257810 9.181192 23.923897 0.000003 0.000002 63.081872 -9.747981 -62.988770 19.846716 -0.012764 -0.000001 -32.007837 -32.942682 -86.036382 -9.469263 -0.004642 0.045491 1.304388 -2.823843 -10.342760 0.000075 -0.002667 -40.478611 1.177413 -3.435390 -1.611429 -0.000139 -0.049120 -35.224125 -1.340980 0.568305 3.018453 0.000039 -12.539534 -6.151342 0.920106 1.008765 -0.832965 9.469263 -0.004641 0.045496 -0.058154 1.128483 7.032186 -0.000334 -0.002743 -40.478146 11.649828 0.182563 7.155245 -0.000221 -0.049128 -35.224247 -4.102189 0.909523 4.744252 0.000004 -12.539532 -6.151412 -0.706209 2.702080 -0.069638 
4.002914 -16.550869 83.734787 2.064825 3.223673 -111.646498 0.000000 0.009282 11.569117 7.258115 1.484752 -1.302968 -0.000001 -0.016862 9.269639 2.605766 0.435233 0.199191 0.000002 0.000001 8.374491 2.605767 0.435234 0.199188 0.000000 0.000001 8.374490 1.954458 0.325584 0.151250 0.000000 0.000001 12.152557 14.227494 -1.076688 -0.776436 0.000000 -0.040095 7.802307 -9.775956 -1.656006 -1.826170 -2.894403 0.000001 6.791371 -7.838427 -9.732915 -0.095120 -13.574685 0.000002 -0.000012 18.100923 -40.383374 -6.496423 -23.923895 0.000001 0.000001 70.140763 21.732193 67.969822 -19.846720 -0.012766 0.000004 -60.081103 45.442939 85.259093 2.894404 0.000001 6.791378 -4.299578 8.470845 -5.164011 13.574684 0.000000 0.000003 19.116806 39.117354 8.588527 23.923904 0.000002 0.000004 63.031998 -9.630522 -62.888004 19.846704 -0.012768 0.000002 -32.294299 -32.960922 -86.282570 -9.469263 -0.004642 0.045495 1.416335 -2.834285 -10.772697 0.000077 -0.002668 -40.478607 1.362721 -3.466900 -1.615791 -0.000147 -0.049118 -35.224133 -1.433309 0.499923 3.135024 0.000042 -12.539530 -6.151340 0.876148 1.053376 -0.911891 9.469263 -0.004642 0.045493 -0.788562 1.127004 6.446513 -0.000357 -0.002762 -40.478058 13.239051 0.338306 7.683946 -0.000252 -0.049130 -35.224239 -4.063049 0.085089 5.435071 0.000003 -12.539532 -6.151429 -1.040148 2.864650 -0.064592 
4.128423 -16.457842 83.614639 1.897882 3.554700 -111.574965 -0.000000 0.009283 11.569109 7.520178 1.736048 -1.385801 -0.000002 -0.016865 9.269642 2.660906 0.418958 0.222002 -0.000001 -0.000002 8.374501 2.660905 0.418958 0.222001 -0.000001 0.000002 8.374488 1.995822 0.313259 0.168322 -0.000001 -0.000002 12.152564 14.177925 -1.056727 -0.771254 -0.000001 -0.040098 7.802322 -9.867575 -1.621093 -1.809649 -2.894406 -0.000001 6.791383 -7.724796 -9.758597 -0.006448 -13.574682 0.000001 -0.000008 18.055636 -40.381403 -6.432894 -23.923904 -0.000006 0.000002 70.101182 21.709949 67.927058 -19.846720 -0.012769 0.000003 -60.541772 45.380774 85.694613 2.894404 -0.000003 6.791381 -4.275137 8.510604 -5.179845 13.574687 -0.000001 -0.000004 19.341398 39.050835 8.173775 23.923906 -0.000004 -0.000002 62.951299 -9.580862 -62.807182 19.846729 -0.012764 -0.000004 -32.600414 -32.930985 -86.571145 -9.469264 -0.004642 0.045492 1.543489 -2.647990 -10.916371 0.000085 -0.002668 -40.478611 1.504117 -3.426343 -1.817989 -0.000152 -0.049117 -35.224129 -1.269496 0.467682 3.249381 0.000042 -12.539531 -6.151352 0.576511 1.014772 -0.887702 9.469263 -0.004641 0.045489 -1.359904 1.449250 6.225559 -0.000389 -0.002779 -40.478008 14.406428 0.478236 8.374522 -0.000278 -0.049135 -35.224255 -4.016129 -0.721601 6.005860 -0.000001 -12.539535 -6.151442 -1.128447 2.898642 -0.038934 
